<?xml version="1.0" encoding="UTF-8"?>
<svg width="933.99" height="602.94" version="1.1" viewBox="0 0 933.98646 602.93553" xmlns="http://www.w3.org/2000/svg">
 <defs>
  <linearGradient id="a" x1="385.88" x2="387.08" y1="453.09" y2="453.07" gradientUnits="userSpaceOnUse">
   <stop stop-color="#c83737" offset="0"/>
   <stop stop-color="#d35f5f" offset=".18303"/>
   <stop stop-color="#de8787" offset=".35655"/>
   <stop stop-color="#e9afaf" offset=".6472"/>
   <stop stop-color="#f4d7d7" offset="1"/>
  </linearGradient>
 </defs>
 <g transform="translate(-156.94 -20.974)">
  <path d="m174.65 603.56v2.6305h898.55v-2.6305z" fill="#241c1c"/>
  <path d="m174.65 38.691v346.53h898.55v-346.53h-898.55z" fill="#784421"/>
  <path d="m194.4 365.48h859.07v-307.04h-859.07v307.04z" fill="#124312"/>
  <g transform="matrix(1.4103 0 0 1.4103 -59.052 -248.71)">
   <path d="m179.71 217.79-2-2v221.71l2-2z" fill="#28170b"/>
   <path d="m177.71 437.51 2-2h609.14l2 2z" fill="#a05a2c"/>
   <path d="m790.86 437.51-2-2v-217.71l2-2z" fill="#c87137"/>
   <path d="m790.86 215.79-2 2h-609.14l-2-2z" fill="#502d16"/>
  </g>
  <path d="m948.97 382.21c-0.7813 0-1.4103 0.62899-1.4103 1.4103v0.19281c0 0.7813 0.62899 1.4103 1.4103 1.4103h105.26c0.7813 0 1.4103-0.62899 1.4103-1.4103v-0.19281c0-0.7813-0.629-1.4103-1.4103-1.4103h-105.26z" fill="#a57136"/>
  <g transform="matrix(2.2474 0 0 1.7368 -702.47 -394.76)">
   <path d="m750.53 442.25c-0.277 0-0.5 0.223-0.5 0.5l0.085 0.61914-6e-3 0.6875-0.0789 2.4278h18.613l-0.1229-2.4278v-0.6875l0.1229-0.61914c0.0533-0.2683-0.223-0.5-0.5-0.5z" fill="#bc813d"/>
   <path d="m750.03 446.69v0.0723c0 0.277 0.223 0.5 0.5 0.5h17.613c0.277 0 0.5-0.223 0.5-0.5v-0.0723h-18.613z" fill="#293a1e"/>
   <path d="m750.12 443.37v0.23438h18.405v-0.23438zm0 0.45508v0.23242h18.405v-0.23242zm-0.085 2.6602v0.20898h18.613v-0.20898z" fill="#815829"/>
   <path d="m750.03 446.77c1e-3 0.18723 0.10897 0.34327 0.26172 0.42774h18.09c0.15275-0.0845 0.26026-0.24051 0.26171-0.42774h-18.613z" fill="#3a532a"/>
  </g>
  <path d="m567.52 348.15c-3.9065 0-7.0514 3.1449-7.0514 7.0514v248.36h16.642v-42.923h93.638v42.923h16.642v-248.36c0-3.9065-3.1449-7.0514-7.0514-7.0514zm9.591 16.822h16.642v82.981h-16.642zm25.666 0h16.642v82.981h-16.642zm25.663 0h16.642v82.981h-16.642zm25.666 0h16.642v82.981h-16.642zm-76.996 135.54h93.638v50.374h-93.638z" fill="#241c1c"/>
  <path d="m466.29 431.08v175.12h22.779v-63.851h251.24v63.851h22.782v-175.12h-296.8z" fill="#a57136"/>
  <rect x="427.81" y="428" width="373.76" height="8.437" fill="#704d25"/>
  <path d="m489.07 450.91v64.209h251.24v-64.209h-251.24z" fill="#956631"/>
  <g transform="matrix(2.7028 0 0 2.7028 -536.59 -868.93)">
   <g transform="matrix(.98537 .17042 -.17042 .98537 75.251 -50.566)">
    <path transform="translate(-9.1777 -2.8995)" d="m396.48 459.52h-0.51172v12.873h0.0117c0.277 0 0.5-0.223 0.5-0.5v-12.373z" fill="#cf0"/>
    <path transform="translate(-9.1777 -2.8995)" d="m396.48 458.5h-0.51172v1.0234h0.51172v-1.0234z" fill="#e3dbdb"/>
    <path transform="translate(-9.1777 -2.8995)" d="m395.96 456.67v1.8301h0.51172v-1.3301c0-0.277-0.223-0.5-0.5-0.5h-0.0117z" fill="#4d4d4d"/>
    <path transform="translate(-9.1777 -2.8995)" d="m394.56 459.52h-0.51171v12.373c0 0.277 0.223 0.5 0.5 0.5h0.0117v-12.873z" fill="#668000"/>
    <path transform="translate(-9.1777 -2.8995)" d="m394.56 458.5h-0.51171v1.0234h0.51171v-1.0234z" fill="#916f6f"/>
    <path transform="translate(-9.1777 -2.8995)" d="m394.55 456.67c-0.277 0-0.50001 0.223-0.5 0.5v1.3301h0.51171v-1.8301h-0.0117z"/>
    <path transform="translate(-9.1777 -2.8995)" d="m395.96 459.52h-1.4062v12.873h1.4062v-12.873z" fill="#aad400"/>
    <path transform="translate(-9.1777 -2.8995)" d="m395.96 458.5h-1.4062v1.0234h1.4062v-1.0234z" fill="#c8b7b7"/>
    <path transform="translate(-9.1777 -2.8995)" d="m394.56 456.67v1.8301h1.4062v-1.8301h-1.4062z" fill="#1a1a1a"/>
   </g>
   <g transform="matrix(.98051 -.19646 .19646 .98051 -97.695 88.519)">
    <path d="m385.97 451.82c-0.0487 0-0.0859 0.0392-0.0859 0.0879v1.7051c0 0.0487 0.0373 0.0879 0.0859 0.0879h1.0215c0.0487 0 0.0859-0.0392 0.0859-0.0879v-1.7052c0-0.0487-0.0373-0.0879-0.0859-0.0879h-1.0215z" fill="url(#a)"/>
    <path d="m386.99 454.6h-0.22461v12.076c0.075-0.0838 0.22461-0.0972 0.22461-0.2168v-11.859z" fill="#fd5"/>
    <path d="m386.99 453.7h-0.22461v0.90039h0.22461v-0.90039z" fill="#e3dedb"/>
    <path d="m386.19 454.6h-0.22656v11.859c0 0.12013 0.15098 0.13284 0.22656 0.2168v-12.076z" fill="#d4aa00"/>
    <path d="m386.19 453.7h-0.22656v0.90039h0.22656v-0.90039z" fill="#ac9d93"/>
    <path d="m386.77 454.6h-0.57226v12.076c0.0916 0.1017 0.1217 0.26367 0.27344 0.26367h0.0234c0.1523 0 0.18384-0.16131 0.27539-0.26367v-12.076z" fill="#fc0"/>
    <path d="m386.77 453.7h-0.57226v0.90039h0.57226v-0.90039z" fill="#c8beb7"/>
    <path d="m386.99 456.43h-0.22461v0.17345h0.22461v-0.17345z" fill="#e3dedb"/>
    <path d="m386.19 456.43h-0.22656v0.17345h0.22656v-0.17345z" fill="#ac9d93"/>
    <path d="m386.77 456.43h-0.57226v0.17345h0.57226v-0.17345z" fill="#c8beb7"/>
   </g>
   <g transform="matrix(.96593 .25882 -.25882 .96593 125.38 -75.926)">
    <path transform="translate(-9.1777 -2.8995)" d="m396.48 459.52h-0.51172v12.873h0.0117c0.277 0 0.5-0.223 0.5-0.5v-12.373z" fill="#f55"/>
    <path transform="translate(-9.1777 -2.8995)" d="m396.48 458.5h-0.51172v1.0234h0.51172v-1.0234z" fill="#e3dbdb"/>
    <path transform="translate(-9.1777 -2.8995)" d="m395.96 456.67v1.8301h0.51172v-1.3301c0-0.277-0.223-0.5-0.5-0.5h-0.0117z" fill="#784421"/>
    <path transform="translate(-9.1777 -2.8995)" d="m394.56 459.52h-0.51171v12.373c0 0.277 0.223 0.5 0.5 0.5h0.0117v-12.873z" fill="#a00"/>
    <path transform="translate(-9.1777 -2.8995)" d="m394.56 458.5h-0.51171v1.0234h0.51171v-1.0234z" fill="#916f6f"/>
    <path transform="translate(-9.1777 -2.8995)" d="m394.55 456.67c-0.277 0-0.50001 0.223-0.5 0.5v1.3301h0.51171v-1.8301h-0.0117z" fill="#28170b"/>
    <path transform="translate(-9.1777 -2.8995)" d="m395.96 459.52h-1.4062v12.873h1.4062v-12.873z" fill="red"/>
    <path transform="translate(-9.1777 -2.8995)" d="m395.96 458.5h-1.4062v1.0234h1.4062v-1.0234z" fill="#c8b7b7"/>
    <path transform="translate(-9.1777 -2.8995)" d="m394.56 456.67v1.8301h1.4062v-1.8301h-1.4062z" fill="#502d16"/>
   </g>
   <g transform="matrix(.07355 .99729 -.99729 .07355 806.14 23.933)">
    <path d="m387.66 461.44c-0.0249 0-0.0449 0.0392-0.0449 0.0879v1.0625h23.975v-1.0625c0-0.0487-0.02-0.0879-0.0449-0.0879h-23.885zm-0.0449 2.3672v1.0625c0 0.0487 0.02 0.0879 0.0449 0.0879h23.885c0.0249 0 0.0449-0.0392 0.0449-0.0879v-1.0625h-23.975z" fill="#e3e2db" opacity=".32"/>
    <path d="m387.71 461.44v0.57422h0.0645v-0.57422h-0.0645zm0.31054 0v0.57422h0.0645v-0.57422h-0.0645zm0.3086 0v0.57422h0.0644v-0.57422h-0.0644zm0.31054 0v0.57422h0.0625v-0.57422h-0.0625zm0.3086 0v0.57422h0.0644v-0.57422h-0.0644zm0.30859 0v0.57422h0.0645v-0.57422h-0.0645zm0.31055 0v0.57422h0.0625v-0.57422h-0.0625zm0.30859 0v0.57422h0.0645v-0.57422h-0.0645zm0.3086 0v0.57422h0.0645v-0.57422h-0.0645zm0.31054 0v0.57422h0.0625v-0.57422h-0.0625zm0.3086 0v0.57422h0.0645v-0.57422h-0.0645zm0.30859 0v0.57422h0.0645v-0.57422h-0.0645zm0.31055 0v0.57422h0.0644v-0.57422h-0.0644zm0.30859 0v0.57422h0.0645v-0.57422h-0.0645zm0.31055 0v0.57422h0.0625v-0.57422h-0.0625zm0.30859 0v0.57422h0.0645v-0.57422h-0.0645zm0.3086 0v0.57422h0.0644v-0.57422h-0.0644zm0.31054 0v0.57422h0.0625v-0.57422h-0.0625zm0.3086 0v0.57422h0.0645v-0.57422h-0.0645zm0.30859 0v0.57422h0.0644v-0.57422h-0.0644zm0.31055 0v0.57422h0.0625v-0.57422h-0.0625zm0.30859 0v0.57422h0.0645v-0.57422h-0.0645zm0.30859 0v0.57422h0.0645v-0.57422h-0.0645zm0.31055 0v0.57422h0.0645v-0.57422h-0.0645zm0.3086 0v0.57422h0.0645v-0.57422h-0.0645zm0.31054 0v0.57422h0.0625v-0.57422h-0.0625zm0.3086 0v0.57422h0.0644v-0.57422h-0.0644zm0.30859 0v0.57422h0.0645v-0.57422h-0.0645zm0.31055 0v0.57422h0.0625v-0.57422h-0.0625zm0.30859 0v0.57422h0.0644v-0.57422h-0.0644zm0.30859 0v0.57422h0.0645v-0.57422h-0.0645zm0.31055 0v0.57422h0.0625v-0.57422h-0.0625zm0.3086 0v0.57422h0.0645v-0.57422h-0.0645zm0.30859 0v0.57422h0.0644v-0.57422h-0.0644zm0.31055 0v0.57422h0.0625v-0.57422h-0.0625zm0.30859 0v0.57422h0.0645v-0.57422h-0.0645zm0.30859 0v0.57422h0.0645v-0.57422h-0.0645zm0.31055 0v0.57422h0.0645v-0.57422h-0.0645zm0.30859 0v0.57422h0.0645v-0.57422h-0.0645zm0.31055 0v0.57422h0.0625v-0.57422h-0.0625zm0.30859 0v0.57422h0.0645v-0.57422h-0.0645zm0.3086 0v0.57422h0.0644v-0.57422h-0.0644zm0.31054 0v0.57422h0.0625v-0.57422h-0.0625zm0.3086 0v0.57422h0.0644v-0.57422h-0.0644zm0.30859 0v0.57422h0.0645v-0.57422h-0.0645zm0.31055 0v0.57422h0.0625v-0.57422h-0.0625zm0.30859 0v0.57422h0.0645v-0.57422h-0.0645zm0.3086 0v0.57422h0.0645v-0.57422h-0.0645zm0.31054 0v0.57422h0.0645v-0.57422h-0.0645zm0.3086 0v0.57422h0.0645v-0.57422h-0.0645zm0.31054 0v0.57422h0.0625v-0.57422h-0.0625zm0.3086 0v0.57422h0.0644v-0.57422h-0.0644zm0.30859 0v0.57422h0.0645v-0.57422h-0.0645zm0.31055 0v0.57422h0.0625v-0.57422h-0.0625zm0.30859 0v0.57422h0.0645v-0.57422h-0.0645zm0.3086 0v0.57422h0.0644v-0.57422h-0.0644zm0.31054 0v0.57422h0.0625v-0.57422h-0.0625zm0.3086 0v0.57422h0.0645v-0.57422h-0.0645zm0.30859 0v0.57422h0.0644v-0.57422h-0.0644zm0.31055 0v0.57422h0.0625v-0.57422h-0.0625zm0.30859 0v0.57422h0.0645v-0.57422h-0.0645zm0.30859 0v0.57422h0.0645v-0.57422h-0.0645zm0.31055 0v0.57422h0.0645v-0.57422h-0.0645zm0.3086 0v0.57422h0.0645v-0.57422h-0.0645zm0.31054 0v0.57422h0.0625v-0.57422h-0.0625zm0.3086 0v0.57422h0.0644v-0.57422h-0.0644zm0.30859 0v0.57422h0.0645v-0.57422h-0.0645zm0.31055 0v0.57422h0.0625v-0.57422h-0.0625zm0.30859 0v0.57422h0.0644v-0.57422h-0.0644zm0.30859 0v0.57422h0.0645v-0.57422h-0.0645zm0.31055 0v0.57422h0.0625v-0.57422h-0.0625zm0.3086 0v0.57422h0.0645v-0.57422h-0.0645zm0.30859 0v0.57422h0.0644v-0.57422h-0.0644zm0.31055 0v0.57422h0.0645v-0.57422h-0.0645zm0.30859 0v0.57422h0.0645v-0.57422h-0.0645zm0.31055 0v0.57422h0.0625v-0.57422h-0.0625zm0.30859 0v0.57422h0.0645v-0.57422h-0.0645zm0.30859 0v0.57422h0.0645v-0.53125c0-0.0243-0.02-0.043-0.0449-0.043h-0.0195zm-23.816 2.9434v0.57422h0.0645v-0.57422h-0.0645zm0.31054 0v0.57422h0.0645v-0.57422h-0.0645zm0.3086 0v0.57422h0.0644v-0.57422h-0.0644zm0.31054 0v0.57422h0.0625v-0.57422h-0.0625zm0.3086 0v0.57422h0.0644v-0.57422h-0.0644zm0.30859 0v0.57422h0.0645v-0.57422h-0.0645zm0.31055 0v0.57422h0.0625v-0.57422h-0.0625zm0.30859 0v0.57422h0.0645v-0.57422h-0.0645zm0.3086 0v0.57422h0.0645v-0.57422h-0.0645zm0.31054 0v0.57422h0.0625v-0.57422h-0.0625zm0.3086 0v0.57422h0.0645v-0.57422h-0.0645zm0.30859 0v0.57422h0.0645v-0.57422h-0.0645zm0.31055 0v0.57422h0.0644v-0.57422h-0.0644zm0.30859 0v0.57422h0.0645v-0.57422h-0.0645zm0.31055 0v0.57422h0.0625v-0.57422h-0.0625zm0.30859 0v0.57422h0.0645v-0.57422h-0.0645zm0.3086 0v0.57422h0.0644v-0.57422h-0.0644zm0.31054 0v0.57422h0.0625v-0.57422h-0.0625zm0.3086 0v0.57422h0.0645v-0.57422h-0.0645zm0.30859 0v0.57422h0.0644v-0.57422h-0.0644zm0.31055 0v0.57422h0.0625v-0.57422h-0.0625zm0.30859 0v0.57422h0.0645v-0.57422h-0.0645zm0.30859 0v0.57422h0.0645v-0.57422h-0.0645zm0.31055 0v0.57422h0.0645v-0.57422h-0.0645zm0.3086 0v0.57422h0.0645v-0.57422h-0.0645zm0.31054 0v0.57422h0.0625v-0.57422h-0.0625zm0.3086 0v0.57422h0.0644v-0.57422h-0.0644zm0.30859 0v0.57422h0.0645v-0.57422h-0.0645zm0.31055 0v0.57422h0.0625v-0.57422h-0.0625zm0.30859 0v0.57422h0.0644v-0.57422h-0.0644zm0.30859 0v0.57422h0.0645v-0.57422h-0.0645zm0.31055 0v0.57422h0.0625v-0.57422h-0.0625zm0.3086 0v0.57422h0.0645v-0.57422h-0.0645zm0.30859 0v0.57422h0.0644v-0.57422h-0.0644zm0.31055 0v0.57422h0.0625v-0.57422h-0.0625zm0.30859 0v0.57422h0.0645v-0.57422h-0.0645zm0.30859 0v0.57422h0.0645v-0.57422h-0.0645zm0.31055 0v0.57422h0.0645v-0.57422h-0.0645zm0.30859 0v0.57422h0.0645v-0.57422h-0.0645zm0.31055 0v0.57422h0.0625v-0.57422h-0.0625zm0.30859 0v0.57422h0.0645v-0.57422h-0.0645zm0.3086 0v0.57422h0.0644v-0.57422h-0.0644zm0.31054 0v0.57422h0.0625v-0.57422h-0.0625zm0.3086 0v0.57422h0.0644v-0.57422h-0.0644zm0.30859 0v0.57422h0.0645v-0.57422h-0.0645zm0.31055 0v0.57422h0.0625v-0.57422h-0.0625zm0.30859 0v0.57422h0.0645v-0.57422h-0.0645zm0.3086 0v0.57422h0.0645v-0.57422h-0.0645zm0.31054 0v0.57422h0.0645v-0.57422h-0.0645zm0.3086 0v0.57422h0.0645v-0.57422h-0.0645zm0.31054 0v0.57422h0.0625v-0.57422h-0.0625zm0.3086 0v0.57422h0.0644v-0.57422h-0.0644zm0.30859 0v0.57422h0.0645v-0.57422h-0.0645zm0.31055 0v0.57422h0.0625v-0.57422h-0.0625zm0.30859 0v0.57422h0.0645v-0.57422h-0.0645zm0.3086 0v0.57422h0.0644v-0.57422h-0.0644zm0.31054 0v0.57422h0.0625v-0.57422h-0.0625zm0.3086 0v0.57422h0.0645v-0.57422h-0.0645zm0.30859 0v0.57422h0.0644v-0.57422h-0.0644zm0.31055 0v0.57422h0.0625v-0.57422h-0.0625zm0.30859 0v0.57422h0.0645v-0.57422h-0.0645zm0.30859 0v0.57422h0.0645v-0.57422h-0.0645zm0.31055 0v0.57422h0.0645v-0.57422h-0.0645zm0.3086 0v0.57422h0.0645v-0.57422h-0.0645zm0.31054 0v0.57422h0.0625v-0.57422h-0.0625zm0.3086 0v0.57422h0.0644v-0.57422h-0.0644zm0.30859 0v0.57422h0.0645v-0.57422h-0.0645zm0.31055 0v0.57422h0.0625v-0.57422h-0.0625zm0.30859 0v0.57422h0.0644v-0.57422h-0.0644zm0.30859 0v0.57422h0.0645v-0.57422h-0.0645zm0.31055 0v0.57422h0.0625v-0.57422h-0.0625zm0.3086 0v0.57422h0.0645v-0.57422h-0.0645zm0.30859 0v0.57422h0.0644v-0.57422h-0.0644zm0.31055 0v0.57422h0.0645v-0.57422h-0.0645zm0.30859 0v0.57422h0.0645v-0.57422h-0.0645zm0.31055 0v0.57422h0.0625v-0.57422h-0.0625zm0.30859 0v0.57422h0.0645v-0.57422h-0.0645zm0.30859 0v0.57422h0.0645v-0.53125c0-0.0243-0.02-0.043-0.0449-0.043h-0.0195z" fill="#c8c4b7"/>
    <path d="m387.62 462.59v1.2168h23.975v-1.2168h-23.975z" fill="#c8c4b7" opacity=".32"/>
   </g>
   <path d="m371.4 466.41c-0.277 0-0.5 0.223-0.5 0.5v0.15235h1.709v-0.65235h-1.209zm-0.5 1.6758v1.0234h1.709v-1.0234h-1.709zm0 6.5215v3.6621h1.709v-3.6621h-1.709zm0 4.3008v0.42578c0 0.277 0.223 0.5 0.5 0.5h1.209v-0.92578h-1.709z" fill="#d45500"/>
   <path d="m372.61 466.41v0.65235h7.2891v-0.65235h-7.2891zm0 1.6758v1.0234h7.2891v-1.0234h-7.2891zm0 6.5215v3.6621h7.2891v-3.6621h-7.2891zm0 4.3008v0.92578h7.2891v-0.92578h-7.2891z" fill="#f60"/>
   <path d="m379.9 466.41v0.65235h1.709v-0.15235c-1e-5 -0.277-0.22301-0.5-0.5-0.5h-1.209zm0 1.6758v1.0234h1.709v-1.0234h-1.709zm0 6.5215v3.6621h1.709v-3.6621h-1.709zm0 4.3008v0.92578h1.209c0.27699 0 0.49999-0.223 0.5-0.5v-0.42578h-1.709z" fill="#ff7f2a"/>
   <path d="m370.9 467.07v1.0234h1.709v-1.0234h-1.709zm0 2.0469v5.498h1.709v-5.498h-1.709zm0 9.1602v0.63867h1.709v-0.63867h-1.709z" fill="#ffb380"/>
   <path d="m372.61 467.07v1.0234h7.2891v-1.0234h-7.2891zm0 2.0469v5.498h7.2891v-5.498h-7.2891zm0 9.1602v0.63867h7.2891v-0.63867h-7.2891z" fill="#ffb380"/>
   <path d="m379.9 467.07v1.0234h1.709v-1.0234h-1.709zm0 2.0469v5.498h1.709v-5.498h-1.709zm0 9.1602v0.63867h1.709v-0.63867h-1.709z" fill="#fca"/>
  </g>
 </g>
</svg>
